# xmcd CD database file
#
# Track frame offsets:
#	150
#	14037
#	32910
#	47790
#	62490
#	77090
#	88235
#	107425
#	121095
#	133900
#	147927
#	166087
#
# Disc length: 2435 seconds
#
# Revision: 1
# Processed by: cddbd v1.4PL0 Copyright (c) Steve Scherf et al.
# Submitted via: CDex 1.40Beta8
#
DISCID=9f09810c
DTITLE=Lyle Lovett - Here I Am
DYEAR=1991
DGENRE=Country
TTITLE0=You Can't Resit It
TTITLE1=Friend Of The Devil
TTITLE2=Simple Song
TTITLE3=L.A.County
TTITLE4=She'sNo Lady
TTITLE5=Cryin' Shame
TTITLE6=This Old Porch
TTITLE7=Give Back My Heart
TTITLE8=Cowboy Man
TTITLE9=Wath Do You Do
TTITLE10=Here I Am
TTITLE11=Closing Time
EXTD=YEAR: 1991 ID3G: 2
EXTT0=
EXTT1=
EXTT2=
EXTT3=
EXTT4=
EXTT5=
EXTT6=
EXTT7=
EXTT8=
EXTT9=
EXTT10=
EXTT11=
PLAYORDER=
